<svg width="1247" height="201" viewBox="0 0 1247 201" fill="none" xmlns="http://www.w3.org/2000/svg">
<g clip-path="url(#clip0_2_2832)">
<path opacity="0.4" d="M31.4797 -37.7391L1161.94 629.343L1348.95 -667.796L31.4797 -37.7391Z" stroke="url(#paint0_linear_2_2832)" stroke-width="0.780625"/>
<path opacity="0.4" d="M46.2129 -12.7335L1191.48 585.569L1289.94 -674.039L46.2129 -12.7335Z" stroke="url(#paint1_linear_2_2832)" stroke-width="0.780625"/>
<path opacity="0.4" d="M62.6993 10.7763L1216.96 541.632L1231.49 -677.119L62.6993 10.7763Z" stroke="url(#paint2_linear_2_2832)" stroke-width="0.780625"/>
<path opacity="0.4" d="M80.7919 32.7296L1238.4 497.747L1173.87 -677.138L80.7919 32.7296Z" stroke="url(#paint3_linear_2_2832)" stroke-width="0.780625"/>
<path opacity="0.4" d="M100.352 53.0721L1255.83 454.127L1117.32 -674.208L100.352 53.0721Z" stroke="url(#paint4_linear_2_2832)" stroke-width="0.780625"/>
<path opacity="0.4" d="M121.221 71.7647L1269.3 410.982L1062.1 -668.444L121.221 71.7647Z" stroke="url(#paint5_linear_2_2832)" stroke-width="0.780625"/>
<path opacity="0.4" d="M143.252 88.7668L1278.91 368.509L1008.43 -659.981L143.252 88.7668Z" stroke="url(#paint6_linear_2_2832)" stroke-width="0.780625"/>
<path opacity="0.4" d="M166.288 104.06L1284.74 326.908L956.54 -648.958L166.288 104.06Z" stroke="url(#paint7_linear_2_2832)" stroke-width="0.780625"/>
<path opacity="0.4" d="M190.172 117.619L1286.88 286.358L906.623 -635.528L190.172 117.619Z" stroke="url(#paint8_linear_2_2832)" stroke-width="0.780625"/>
<path opacity="0.4" d="M214.746 129.437L1285.48 247.041L858.884 -619.849L214.746 129.437Z" stroke="url(#paint9_linear_2_2832)" stroke-width="0.780625"/>
<path opacity="0.4" d="M239.848 139.514L1280.65 209.125L813.498 -602.088L239.848 139.514Z" stroke="url(#paint10_linear_2_2832)" stroke-width="0.780625"/>
<path opacity="0.4" d="M265.326 147.859L1272.56 172.771L770.634 -582.418L265.326 147.859Z" stroke="url(#paint11_linear_2_2832)" stroke-width="0.780625"/>
<path opacity="0.4" d="M291.02 154.482L1261.37 138.124L730.44 -561.023L291.02 154.482Z" stroke="url(#paint12_linear_2_2832)" stroke-width="0.780625"/>
<path opacity="0.4" d="M316.772 159.411L1247.25 105.323L693.053 -538.083L316.772 159.411Z" stroke="url(#paint13_linear_2_2832)" stroke-width="0.780625"/>
<path opacity="0.4" d="M342.432 162.678L1230.4 74.498L658.591 -513.791L342.432 162.678Z" stroke="url(#paint14_linear_2_2832)" stroke-width="0.780625"/>
<path opacity="0.4" d="M367.849 164.322L1211 45.7588L627.158 -488.339L367.849 164.322Z" stroke="url(#paint15_linear_2_2832)" stroke-width="0.780625"/>
<path opacity="0.4" d="M392.872 164.39L1189.27 19.2114L598.836 -461.924L392.872 164.39Z" stroke="url(#paint16_linear_2_2832)" stroke-width="0.780625"/>
<path opacity="0.4" d="M417.364 162.934L1165.42 -5.05771L573.699 -434.743L417.364 162.934Z" stroke="url(#paint17_linear_2_2832)" stroke-width="0.780625"/>
<path opacity="0.4" d="M441.184 160.016L1139.68 -26.9698L551.796 -406.997L441.184 160.016Z" stroke="url(#paint18_linear_2_2832)" stroke-width="0.780625"/>
<path opacity="0.4" d="M464.204 155.703L1112.28 -46.4605L533.162 -378.884L464.204 155.703Z" stroke="url(#paint19_linear_2_2832)" stroke-width="0.780625"/>
<path opacity="0.4" d="M486.294 150.072L1083.45 -63.4789L517.817 -350.6L486.294 150.072Z" stroke="url(#paint20_linear_2_2832)" stroke-width="0.780625"/>
<path opacity="0.4" d="M507.333 143.198L1053.43 -77.9916L505.756 -322.344L507.333 143.198Z" stroke="url(#paint21_linear_2_2832)" stroke-width="0.780625"/>
<path opacity="0.4" d="M527.212 135.171L1022.46 -89.9682L496.966 -294.308L527.212 135.171Z" stroke="url(#paint22_linear_2_2832)" stroke-width="0.780625"/>
<path opacity="0.4" d="M545.821 126.078L990.797 -99.4035L491.412 -266.683L545.821 126.078Z" stroke="url(#paint23_linear_2_2832)" stroke-width="0.780625"/>
<path opacity="0.4" d="M563.066 116.012L958.679 -106.302L489.045 -239.658L563.066 116.012Z" stroke="url(#paint24_linear_2_2832)" stroke-width="0.780625"/>
<path opacity="0.4" d="M578.853 105.074L926.351 -110.677L489.796 -213.411L578.853 105.074Z" stroke="url(#paint25_linear_2_2832)" stroke-width="0.780625"/>
<path opacity="0.4" d="M593.102 93.3705L894.058 -112.558L493.581 -188.115L593.102 93.3705Z" stroke="url(#paint26_linear_2_2832)" stroke-width="0.780625"/>
<path opacity="0.4" d="M605.747 81.0014L862.047 -111.99L500.308 -163.944L605.747 81.0014Z" stroke="url(#paint27_linear_2_2832)" stroke-width="0.780625"/>
<path opacity="0.4" d="M616.719 68.0748L830.553 -109.03L509.86 -141.058L616.719 68.0748Z" stroke="url(#paint28_linear_2_2832)" stroke-width="0.780625"/>
<path opacity="0.4" d="M625.965 54.7077L799.81 -103.741L522.108 -119.606L625.965 54.7077Z" stroke="url(#paint29_linear_2_2832)" stroke-width="0.780625"/>
<path opacity="0.4" d="M633.445 41.0058L770.049 -96.2095L536.914 -99.7363L633.445 41.0058Z" stroke="url(#paint30_linear_2_2832)" stroke-width="0.780625"/>
<path opacity="0.4" d="M639.119 27.0869L741.491 -86.526L554.12 -81.5837L639.119 27.0869Z" stroke="url(#paint31_linear_2_2832)" stroke-width="0.780625"/>
<path opacity="0.4" d="M642.968 13.0645L714.353 -74.7903L573.563 -65.274L642.968 13.0645Z" stroke="url(#paint32_linear_2_2832)" stroke-width="0.780625"/>
<path opacity="0.4" d="M644.976 -0.948096L688.841 -61.1219L595.062 -50.9193L644.976 -0.948096Z" stroke="url(#paint33_linear_2_2832)" stroke-width="0.780625"/>
</g>
<defs>
<linearGradient id="paint0_linear_2_2832" x1="31.4796" y1="-37.7392" x2="1233.14" y2="135.51" gradientUnits="userSpaceOnUse">
<stop stop-color="#1F89DB"/>
<stop offset="1" stop-color="#F42A8B"/>
</linearGradient>
<linearGradient id="paint1_linear_2_2832" x1="46.213" y1="-12.7334" x2="1231.01" y2="79.8729" gradientUnits="userSpaceOnUse">
<stop stop-color="#1F89DB"/>
<stop offset="1" stop-color="#F42A8B"/>
</linearGradient>
<linearGradient id="paint2_linear_2_2832" x1="62.6993" y1="10.7763" x2="1223.13" y2="24.6086" gradientUnits="userSpaceOnUse">
<stop stop-color="#1F89DB"/>
<stop offset="1" stop-color="#F42A8B"/>
</linearGradient>
<linearGradient id="paint3_linear_2_2832" x1="80.7919" y1="32.7296" x2="1209.45" y2="-29.2613" gradientUnits="userSpaceOnUse">
<stop stop-color="#1F89DB"/>
<stop offset="1" stop-color="#F42A8B"/>
</linearGradient>
<linearGradient id="paint4_linear_2_2832" x1="100.352" y1="53.0722" x2="1190.18" y2="-80.702" gradientUnits="userSpaceOnUse">
<stop stop-color="#1F89DB"/>
<stop offset="1" stop-color="#F42A8B"/>
</linearGradient>
<linearGradient id="paint5_linear_2_2832" x1="121.221" y1="71.7647" x2="1165.7" y2="-128.73" gradientUnits="userSpaceOnUse">
<stop stop-color="#1F89DB"/>
<stop offset="1" stop-color="#F42A8B"/>
</linearGradient>
<linearGradient id="paint6_linear_2_2832" x1="143.251" y1="88.7668" x2="1136.64" y2="-172.479" gradientUnits="userSpaceOnUse">
<stop stop-color="#1F89DB"/>
<stop offset="1" stop-color="#F42A8B"/>
</linearGradient>
<linearGradient id="paint7_linear_2_2832" x1="166.288" y1="104.06" x2="1103.76" y2="-211.223" gradientUnits="userSpaceOnUse">
<stop stop-color="#1F89DB"/>
<stop offset="1" stop-color="#F42A8B"/>
</linearGradient>
<linearGradient id="paint8_linear_2_2832" x1="190.172" y1="117.619" x2="1067.94" y2="-244.442" gradientUnits="userSpaceOnUse">
<stop stop-color="#1F89DB"/>
<stop offset="1" stop-color="#F42A8B"/>
</linearGradient>
<linearGradient id="paint9_linear_2_2832" x1="214.746" y1="129.437" x2="1030.15" y2="-271.819" gradientUnits="userSpaceOnUse">
<stop stop-color="#1F89DB"/>
<stop offset="1" stop-color="#F42A8B"/>
</linearGradient>
<linearGradient id="paint10_linear_2_2832" x1="239.848" y1="139.514" x2="991.348" y2="-293.253" gradientUnits="userSpaceOnUse">
<stop stop-color="#1F89DB"/>
<stop offset="1" stop-color="#F42A8B"/>
</linearGradient>
<linearGradient id="paint11_linear_2_2832" x1="265.326" y1="147.859" x2="952.463" y2="-308.841" gradientUnits="userSpaceOnUse">
<stop stop-color="#1F89DB"/>
<stop offset="1" stop-color="#F42A8B"/>
</linearGradient>
<linearGradient id="paint12_linear_2_2832" x1="291.02" y1="154.482" x2="914.335" y2="-318.864" gradientUnits="userSpaceOnUse">
<stop stop-color="#1F89DB"/>
<stop offset="1" stop-color="#F42A8B"/>
</linearGradient>
<linearGradient id="paint13_linear_2_2832" x1="316.772" y1="159.411" x2="877.686" y2="-323.732" gradientUnits="userSpaceOnUse">
<stop stop-color="#1F89DB"/>
<stop offset="1" stop-color="#F42A8B"/>
</linearGradient>
<linearGradient id="paint14_linear_2_2832" x1="342.432" y1="162.678" x2="843.101" y2="-323.963" gradientUnits="userSpaceOnUse">
<stop stop-color="#1F89DB"/>
<stop offset="1" stop-color="#F42A8B"/>
</linearGradient>
<linearGradient id="paint15_linear_2_2832" x1="367.849" y1="164.322" x2="811.028" y2="-320.135" gradientUnits="userSpaceOnUse">
<stop stop-color="#1F89DB"/>
<stop offset="1" stop-color="#F42A8B"/>
</linearGradient>
<linearGradient id="paint16_linear_2_2832" x1="392.872" y1="164.39" x2="781.77" y2="-312.854" gradientUnits="userSpaceOnUse">
<stop stop-color="#1F89DB"/>
<stop offset="1" stop-color="#F42A8B"/>
</linearGradient>
<linearGradient id="paint17_linear_2_2832" x1="417.364" y1="162.934" x2="755.507" y2="-302.723" gradientUnits="userSpaceOnUse">
<stop stop-color="#1F89DB"/>
<stop offset="1" stop-color="#F42A8B"/>
</linearGradient>
<linearGradient id="paint18_linear_2_2832" x1="441.184" y1="160.016" x2="732.294" y2="-290.317" gradientUnits="userSpaceOnUse">
<stop stop-color="#1F89DB"/>
<stop offset="1" stop-color="#F42A8B"/>
</linearGradient>
<linearGradient id="paint19_linear_2_2832" x1="464.204" y1="155.703" x2="712.105" y2="-276.167" gradientUnits="userSpaceOnUse">
<stop stop-color="#1F89DB"/>
<stop offset="1" stop-color="#F42A8B"/>
</linearGradient>
<linearGradient id="paint20_linear_2_2832" x1="486.294" y1="150.072" x2="694.831" y2="-260.746" gradientUnits="userSpaceOnUse">
<stop stop-color="#1F89DB"/>
<stop offset="1" stop-color="#F42A8B"/>
</linearGradient>
<linearGradient id="paint21_linear_2_2832" x1="507.333" y1="143.198" x2="680.298" y2="-244.469" gradientUnits="userSpaceOnUse">
<stop stop-color="#1F89DB"/>
<stop offset="1" stop-color="#F42A8B"/>
</linearGradient>
<linearGradient id="paint22_linear_2_2832" x1="527.212" y1="135.171" x2="668.309" y2="-227.683" gradientUnits="userSpaceOnUse">
<stop stop-color="#1F89DB"/>
<stop offset="1" stop-color="#F42A8B"/>
</linearGradient>
<linearGradient id="paint23_linear_2_2832" x1="545.821" y1="126.078" x2="658.622" y2="-210.673" gradientUnits="userSpaceOnUse">
<stop stop-color="#1F89DB"/>
<stop offset="1" stop-color="#F42A8B"/>
</linearGradient>
<linearGradient id="paint24_linear_2_2832" x1="563.066" y1="116.012" x2="651.002" y2="-193.669" gradientUnits="userSpaceOnUse">
<stop stop-color="#1F89DB"/>
<stop offset="1" stop-color="#F42A8B"/>
</linearGradient>
<linearGradient id="paint25_linear_2_2832" x1="578.853" y1="105.074" x2="645.196" y2="-176.841" gradientUnits="userSpaceOnUse">
<stop stop-color="#1F89DB"/>
<stop offset="1" stop-color="#F42A8B"/>
</linearGradient>
<linearGradient id="paint26_linear_2_2832" x1="593.102" y1="93.3705" x2="640.964" y2="-160.308" gradientUnits="userSpaceOnUse">
<stop stop-color="#1F89DB"/>
<stop offset="1" stop-color="#F42A8B"/>
</linearGradient>
<linearGradient id="paint27_linear_2_2832" x1="605.747" y1="81.0014" x2="638.084" y2="-144.155" gradientUnits="userSpaceOnUse">
<stop stop-color="#1F89DB"/>
<stop offset="1" stop-color="#F42A8B"/>
</linearGradient>
<linearGradient id="paint28_linear_2_2832" x1="616.719" y1="68.0748" x2="636.343" y2="-128.426" gradientUnits="userSpaceOnUse">
<stop stop-color="#1F89DB"/>
<stop offset="1" stop-color="#F42A8B"/>
</linearGradient>
<linearGradient id="paint29_linear_2_2832" x1="625.965" y1="54.7077" x2="635.552" y2="-113.125" gradientUnits="userSpaceOnUse">
<stop stop-color="#1F89DB"/>
<stop offset="1" stop-color="#F42A8B"/>
</linearGradient>
<linearGradient id="paint30_linear_2_2832" x1="633.445" y1="41.0058" x2="635.551" y2="-98.244" gradientUnits="userSpaceOnUse">
<stop stop-color="#1F89DB"/>
<stop offset="1" stop-color="#F42A8B"/>
</linearGradient>
<linearGradient id="paint31_linear_2_2832" x1="639.119" y1="27.0869" x2="636.196" y2="-83.7482" gradientUnits="userSpaceOnUse">
<stop stop-color="#1F89DB"/>
<stop offset="1" stop-color="#F42A8B"/>
</linearGradient>
<linearGradient id="paint32_linear_2_2832" x1="642.968" y1="13.0645" x2="637.38" y2="-69.5875" gradientUnits="userSpaceOnUse">
<stop stop-color="#1F89DB"/>
<stop offset="1" stop-color="#F42A8B"/>
</linearGradient>
<linearGradient id="paint33_linear_2_2832" x1="644.976" y1="-0.948091" x2="639.019" y2="-55.7014" gradientUnits="userSpaceOnUse">
<stop stop-color="#1F89DB"/>
<stop offset="1" stop-color="#F42A8B"/>
</linearGradient>
<clipPath id="clip0_2_2832">
<rect width="671.399" height="1316.29" fill="white" transform="translate(1441.68 -131.529) rotate(104.3)"/>
</clipPath>
</defs>
</svg>
