<svg width="20" height="20" viewBox="0 0 20 20" fill="none" xmlns="http://www.w3.org/2000/svg">
<path d="M9.58333 0C4.29017 0 0 4.29017 0 9.58333C0 14.3656 3.50124 18.3252 8.07692 19.0502L8.08067 12.3595H5.63129V9.58708H8.08067C8.08067 9.58708 8.06938 8.00929 8.08067 7.30679C8.09192 6.60429 8.23092 5.92808 8.59533 5.31196C9.15508 4.35775 10.0266 3.89196 11.0973 3.76046C11.9763 3.65151 12.8442 3.77171 13.712 3.89196C13.772 3.89946 13.8021 3.90696 13.8622 3.91825C13.8622 3.91825 13.866 4.01967 13.8622 4.08354C13.8585 4.75221 13.8622 6.28496 13.8622 6.28496C13.4452 6.27746 12.754 6.23613 12.2957 6.3075C11.5368 6.42396 11.101 6.90858 11.086 7.67117C11.071 8.26475 11.0785 9.58708 11.0785 9.58708H13.7495L13.3175 12.3595H11.0823V19.0502C15.6654 18.3327 19.1704 14.3656 19.1704 9.58333C19.1667 4.29017 14.8765 0 9.58333 0Z" fill="#0075FA"/>
</svg>
