<svg width="9" height="16" viewBox="0 0 9 16" fill="none" xmlns="http://www.w3.org/2000/svg">
<path d="M16.705 0.210023C16.355 0.210023 16.005 0.145023 15.65 0.120023C15.15 0.0850234 14.605 0.0500234 14.08 0.0300234C13.555 0.0100234 13 2.34375e-05 12.435 2.34375e-05C12.391 -0.000976562 12.339 -0.000976562 12.287 -0.000976562C11.289 -0.000976562 10.33 0.170023 9.44 0.484023L9.5 0.466023C8.058 0.959023 6.886 1.92802 6.146 3.18202L6.13 3.21102C5.693 3.95702 5.374 4.82902 5.226 5.75802L5.22 5.80102C5.134 6.31002 5.085 6.89602 5.085 7.49402C5.085 7.52602 5.085 7.55902 5.085 7.59102V7.58602C5.085 8.91602 5.085 10.246 5.085 11.586C5.085 11.631 5.085 11.676 5.085 11.726H0.184998V17.426H5.08V32.001H11V17.421H15.885C16.13 15.516 16.385 13.626 16.62 11.721H11C10.999 11.705 10.998 11.685 10.998 11.666C10.998 11.647 10.999 11.627 11 11.608V11.611C11 10.326 11 9.03602 11 7.75102C11 7.74802 11 7.74502 11 7.74102C11 7.33102 11.079 6.93902 11.222 6.58002L11.215 6.60102C11.419 6.07102 11.848 5.66802 12.382 5.50402L12.395 5.50102C12.755 5.38302 13.169 5.31602 13.599 5.31602C13.62 5.31602 13.642 5.31602 13.663 5.31602H13.66H16.69C16.815 5.31602 16.815 5.31602 16.815 5.19602V0.341023C16.815 0.261023 16.805 0.216023 16.705 0.211023V0.210023Z" fill="#D5DCEB"/>
</svg>
