<svg width="20" height="20" viewBox="0 0 20 20" fill="none" xmlns="http://www.w3.org/2000/svg">
<path d="M10.0003 0.416748C4.70716 0.416748 0.416992 4.70691 0.416992 10.0001C0.416992 14.7824 3.91823 18.7419 8.49391 19.467L8.49766 12.7763H6.04828V10.0038H8.49766C8.49766 10.0038 8.48637 8.42604 8.49766 7.72354C8.50891 7.02104 8.64791 6.34483 9.01233 5.72871C9.57208 4.7745 10.4436 4.30871 11.5143 4.17721C12.3933 4.06826 13.2612 4.18846 14.1289 4.30871C14.189 4.31621 14.2191 4.32371 14.2792 4.335C14.2792 4.335 14.2829 4.43641 14.2792 4.50029C14.2754 5.16896 14.2792 6.70171 14.2792 6.70171C13.8622 6.69421 13.171 6.65287 12.7127 6.72425C11.9538 6.84071 11.518 7.32533 11.503 8.08792C11.488 8.6815 11.4955 10.0038 11.4955 10.0038H14.1665L13.7345 12.7763H11.4992V19.467C16.0824 18.7494 19.5874 14.7824 19.5874 10.0001C19.5837 4.70691 15.2935 0.416748 10.0003 0.416748Z" fill="#0075FA"/>
</svg>
