<svg width="20" height="20" viewBox="0 0 20 20" fill="none" xmlns="http://www.w3.org/2000/svg">
<path fill-rule="evenodd" clip-rule="evenodd" d="M17.9163 10.1796C17.9163 9.61826 17.8649 9.07847 17.7694 8.5603H10.1611V11.6226H14.5087C14.3214 12.6122 13.7523 13.4507 12.8968 14.0121V15.9984H15.5075C17.035 14.6202 17.9163 12.5906 17.9163 10.1796Z" fill="#4285F4"/>
<path fill-rule="evenodd" clip-rule="evenodd" d="M10.1614 17.917C12.3425 17.917 14.1712 17.2081 15.5077 15.999L12.897 14.0126C12.1736 14.4876 11.2483 14.7683 10.1614 14.7683C8.05737 14.7683 6.27646 13.3756 5.64125 11.5044H2.94238V13.5556C4.27162 16.1429 7.0035 17.917 10.1614 17.917Z" fill="#34A853"/>
<path fill-rule="evenodd" clip-rule="evenodd" d="M5.64113 11.504C5.47951 11.029 5.38772 10.5216 5.38772 9.99983C5.38772 9.47808 5.47951 8.97071 5.64113 8.49566V6.44458H2.94225C2.39514 7.51333 2.08301 8.72241 2.08301 9.99983C2.08301 11.2773 2.39514 12.4865 2.94225 13.5552L5.64113 11.504Z" fill="#FBBC04"/>
<path fill-rule="evenodd" clip-rule="evenodd" d="M10.1614 5.23192C11.3474 5.23192 12.4123 5.63138 13.2495 6.41584L15.5665 4.14519C14.1675 2.86776 12.3389 2.08325 10.1614 2.08325C7.0035 2.08325 4.27162 3.85732 2.94238 6.44467L5.64125 8.49575C6.27646 6.62454 8.05737 5.23192 10.1614 5.23192Z" fill="#EA4335"/>
</svg>
