<svg width="18" height="15" viewBox="0 0 18 15" fill="none" xmlns="http://www.w3.org/2000/svg">
<path fill-rule="evenodd" clip-rule="evenodd" d="M17.0018 0.332925C16.4934 0.676512 15.3259 1.1758 14.7502 1.1758V1.17682C14.0927 0.452308 13.1672 0 12.1407 0C10.1471 0 8.53046 1.70542 8.53046 3.80779C8.53046 4.09992 8.56254 4.38483 8.62187 4.65804H8.62129C5.91696 4.58317 2.95925 3.15325 1.17872 0.705846C0.0839999 2.70483 1.03133 4.928 2.27364 5.73804C1.84839 5.77192 1.06555 5.68637 0.697083 5.30708C0.672387 6.63383 1.27711 8.39179 3.48212 9.02954C3.05746 9.27058 2.30572 9.20142 1.97886 9.15017C2.09358 10.2702 3.58029 11.7344 5.20604 11.7344C4.62662 12.4414 2.4465 13.7239 0 13.3159C1.66153 14.3824 3.598 15 5.64762 15C11.4722 15 15.9956 10.0201 15.7521 3.87671C15.7512 3.86996 15.7512 3.86317 15.7506 3.85579C15.7512 3.84 15.7521 3.82421 15.7521 3.80779C15.7521 3.78871 15.7506 3.77067 15.75 3.75221C16.2802 3.36962 16.9917 2.69292 17.5 1.80225C17.2052 1.97354 16.3209 2.3165 15.498 2.40162C16.0261 2.10092 16.8085 1.1161 17.0018 0.332925Z" fill="#1DA1F2"/>
</svg>
